<svg width="64" height="64" viewBox="0 0 64 64" fill="none" xmlns="http://www.w3.org/2000/svg">
<rect width="64" height="64" rx="5" fill="#DEEEFF"/>
<path d="M43.7349 55.4C41.9856 55.4 40.5563 54.888 39.4469 53.864C38.3803 52.7973 37.8469 51.5173 37.8469 50.024C37.8469 48.488 38.3803 47.208 39.4469 46.184C40.5563 45.1173 41.9856 44.584 43.7349 44.584C45.4416 44.584 46.8283 45.1173 47.8949 46.184C48.9616 47.208 49.4949 48.488 49.4949 50.024C49.4949 51.5173 48.9616 52.7973 47.8949 53.864C46.8283 54.888 45.4416 55.4 43.7349 55.4Z" fill="black"/>
<path d="M18.224 55.08V20.52C18.224 17.704 18.7147 15.464 19.696 13.8C20.6773 12.0933 22.0427 10.8773 23.792 10.152C25.584 9.384 27.632 9 29.936 9H34.032V17.128H31.472C30.1493 17.128 29.2107 17.384 28.656 17.896C28.1013 18.408 27.824 19.2827 27.824 20.52V55.08H18.224ZM14 30.824V22.824H34.48V30.824H14Z" fill="black"/>
</svg>
